<svg xmlns="http://www.w3.org/2000/svg" xmlns:xlink="http://www.w3.org/1999/xlink" width="1080" zoomAndPan="magnify" viewBox="0 0 810 809.999993" height="1080" preserveAspectRatio="xMidYMid meet" version="1.0"><defs><g/><clipPath id="09c916303c"><path d="M 98.578125 393.160156 L 303 393.160156 L 303 414.160156 L 98.578125 414.160156 Z M 98.578125 393.160156 " clip-rule="nonzero"/></clipPath><clipPath id="41353e1bd1"><path d="M 302 393.160156 L 508 393.160156 L 508 414.160156 L 302 414.160156 Z M 302 393.160156 " clip-rule="nonzero"/></clipPath><clipPath id="60498814d9"><path d="M 507 393.160156 L 711.328125 393.160156 L 711.328125 414.160156 L 507 414.160156 Z M 507 393.160156 " clip-rule="nonzero"/></clipPath></defs><g fill="#ffffff" fill-opacity="1"><g transform="translate(183.258189, 389.215695)"><g><path d="M 102.019531 0 C 115.222656 0 126.023438 -10.800781 126.023438 -24.003906 L 126.023438 -96.019531 C 126.023438 -109.222656 115.222656 -120.023438 102.019531 -120.023438 L 6 -120.023438 L 6 0 Z M 30.007812 -96.019531 L 102.019531 -96.019531 L 102.019531 -24.003906 L 30.007812 -24.003906 Z M 30.007812 -96.019531 "/></g></g></g><g fill="#ffffff" fill-opacity="1"><g transform="translate(338.984281, 389.215695)"><g><path d="M 102.019531 -120.023438 L 6 -120.023438 L 6 0 L 30.007812 0 L 30.007812 -48.007812 L 102.019531 -48.007812 C 115.222656 -48.007812 126.023438 -58.8125 126.023438 -72.015625 L 126.023438 -96.019531 C 126.023438 -109.222656 115.222656 -120.023438 102.019531 -120.023438 Z M 30.007812 -72.015625 L 30.007812 -96.019531 L 102.019531 -96.019531 L 102.019531 -72.015625 Z M 30.007812 -72.015625 "/></g></g></g><g fill="#ffffff" fill-opacity="1"><g transform="translate(494.710373, 389.215695)"><g><path d="M 126.023438 -96.019531 C 126.023438 -109.222656 115.222656 -120.023438 102.019531 -120.023438 L 6 -120.023438 L 6 0 L 30.007812 0 L 30.007812 -48.007812 L 44.109375 -48.007812 L 88.519531 -3.601562 C 90.917969 -1.199219 93.917969 0 97.21875 0 L 126.023438 0 L 126.023438 -24.003906 L 102.019531 -24.003906 L 78.015625 -48.007812 L 102.019531 -48.007812 C 115.222656 -48.007812 126.023438 -58.8125 126.023438 -72.015625 Z M 102.019531 -96.019531 L 102.019531 -72.015625 L 30.007812 -72.015625 L 30.007812 -96.019531 Z M 102.019531 -96.019531 "/></g></g></g><g fill="#ffffff" fill-opacity="1"><g transform="translate(105.387099, 539.215687)"><g><path d="M 126.023438 0 L 126.023438 -24.003906 L 30.007812 -24.003906 L 30.007812 -120.023438 L 6 -120.023438 L 6 -24.003906 C 6 -10.800781 16.804688 0 30.007812 0 Z M 126.023438 0 "/></g></g></g><g fill="#ffffff" fill-opacity="1"><g transform="translate(261.113191, 539.215687)"><g><path d="M 126.023438 -120.023438 L 30.007812 -120.023438 C 16.804688 -120.023438 6 -109.222656 6 -96.019531 L 6 -24.003906 C 6 -10.800781 16.804688 0 30.007812 0 L 126.023438 0 L 126.023438 -24.003906 L 30.007812 -24.003906 L 30.007812 -48.007812 L 126.023438 -48.007812 L 126.023438 -72.015625 L 30.007812 -72.015625 L 30.007812 -96.019531 L 126.023438 -96.019531 Z M 126.023438 -120.023438 "/></g></g></g><g fill="#ffffff" fill-opacity="1"><g transform="translate(416.839283, 539.215687)"><g><path d="M 30.007812 -120.023438 C 16.804688 -120.023438 6 -109.222656 6 -96.019531 L 6 0 L 30.007812 0 L 30.007812 -48.007812 L 102.019531 -48.007812 L 102.019531 0 L 126.023438 0 L 126.023438 -96.019531 C 126.023438 -109.222656 115.222656 -120.023438 102.019531 -120.023438 Z M 30.007812 -96.019531 L 102.019531 -96.019531 L 102.019531 -72.015625 L 30.007812 -72.015625 Z M 30.007812 -96.019531 "/></g></g></g><g fill="#ffffff" fill-opacity="1"><g transform="translate(572.565398, 539.215687)"><g><path d="M 126.023438 -120.023438 L 97.21875 -120.023438 C 93.917969 -120.023438 90.917969 -118.824219 88.519531 -116.421875 L 44.109375 -72.015625 L 30.007812 -72.015625 L 30.007812 -120.023438 L 6 -120.023438 L 6 0 L 30.007812 0 L 30.007812 -48.007812 L 44.109375 -48.007812 L 88.519531 -3.601562 C 90.917969 -1.199219 93.917969 0 97.21875 0 L 126.023438 0 L 126.023438 -24.003906 L 102.019531 -24.003906 L 66.011719 -60.011719 L 102.019531 -96.019531 L 126.023438 -96.019531 Z M 126.023438 -120.023438 "/></g></g></g><g clip-path="url(#09c916303c)"><path fill="#000000" d="M 98.582031 142.148438 L 302.832031 142.148438 L 302.832031 550.898438 L 98.582031 550.898438 Z M 98.582031 142.148438 " fill-opacity="1" fill-rule="nonzero"/></g><g clip-path="url(#41353e1bd1)"><path fill="#ffe936" d="M 302.832031 142.148438 L 507.078125 142.148438 L 507.078125 550.898438 L 302.832031 550.898438 Z M 302.832031 142.148438 " fill-opacity="1" fill-rule="nonzero"/></g><g clip-path="url(#60498814d9)"><path fill="#ff0f21" d="M 507.078125 142.148438 L 711.328125 142.148438 L 711.328125 550.898438 L 507.078125 550.898438 Z M 507.078125 142.148438 " fill-opacity="1" fill-rule="nonzero"/></g></svg>