<svg xmlns="http://www.w3.org/2000/svg" xmlns:xlink="http://www.w3.org/1999/xlink" width="1080" zoomAndPan="magnify" viewBox="0 0 810 434.999989" height="580" preserveAspectRatio="xMidYMid meet" version="1.0"><defs><g/><clipPath id="92259bef20"><path d="M 5.394531 204.019531 L 272 204.019531 L 272 231.019531 L 5.394531 231.019531 Z M 5.394531 204.019531 " clip-rule="nonzero"/></clipPath><clipPath id="22cdd878f8"><path d="M 271 204.019531 L 539 204.019531 L 539 231.019531 L 271 231.019531 Z M 271 204.019531 " clip-rule="nonzero"/></clipPath><clipPath id="7558d16e00"><path d="M 538 204.019531 L 804.894531 204.019531 L 804.894531 231.019531 L 538 231.019531 Z M 538 204.019531 " clip-rule="nonzero"/></clipPath></defs><g fill="#ffffff" fill-opacity="1"><g transform="translate(103.473868, 196.095928)"><g><path d="M 138.644531 0 C 156.585938 0 171.265625 -14.679688 171.265625 -32.621094 L 171.265625 -130.488281 C 171.265625 -148.429688 156.585938 -163.109375 138.644531 -163.109375 L 8.15625 -163.109375 L 8.15625 0 Z M 40.777344 -130.488281 L 138.644531 -130.488281 L 138.644531 -32.621094 L 40.777344 -32.621094 Z M 40.777344 -130.488281 "/></g></g></g><g fill="#ffffff" fill-opacity="1"><g transform="translate(315.103735, 196.095928)"><g><path d="M 138.644531 -163.109375 L 8.15625 -163.109375 L 8.15625 0 L 40.777344 0 L 40.777344 -65.246094 L 138.644531 -65.246094 C 156.585938 -65.246094 171.265625 -79.925781 171.265625 -97.867188 L 171.265625 -130.488281 C 171.265625 -148.429688 156.585938 -163.109375 138.644531 -163.109375 Z M 40.777344 -97.867188 L 40.777344 -130.488281 L 138.644531 -130.488281 L 138.644531 -97.867188 Z M 40.777344 -97.867188 "/></g></g></g><g fill="#ffffff" fill-opacity="1"><g transform="translate(526.733602, 196.095928)"><g><path d="M 171.265625 -130.488281 C 171.265625 -148.429688 156.585938 -163.109375 138.644531 -163.109375 L 8.15625 -163.109375 L 8.15625 0 L 40.777344 0 L 40.777344 -65.246094 L 59.941406 -65.246094 L 120.292969 -4.894531 C 123.558594 -1.632812 127.632812 0 132.121094 0 L 171.265625 0 L 171.265625 -32.621094 L 138.644531 -32.621094 L 106.023438 -65.246094 L 138.644531 -65.246094 C 156.585938 -65.246094 171.265625 -79.925781 171.265625 -97.867188 Z M 138.644531 -130.488281 L 138.644531 -97.867188 L 40.777344 -97.867188 L 40.777344 -130.488281 Z M 138.644531 -130.488281 "/></g></g></g><g fill="#ffffff" fill-opacity="1"><g transform="translate(-2.351997, 399.944095)"><g><path d="M 171.265625 0 L 171.265625 -32.621094 L 40.777344 -32.621094 L 40.777344 -163.109375 L 8.15625 -163.109375 L 8.15625 -32.621094 C 8.15625 -14.679688 22.835938 0 40.777344 0 Z M 171.265625 0 "/></g></g></g><g fill="#ffffff" fill-opacity="1"><g transform="translate(209.27787, 399.944095)"><g><path d="M 171.265625 -163.109375 L 40.777344 -163.109375 C 22.835938 -163.109375 8.15625 -148.429688 8.15625 -130.488281 L 8.15625 -32.621094 C 8.15625 -14.679688 22.835938 0 40.777344 0 L 171.265625 0 L 171.265625 -32.621094 L 40.777344 -32.621094 L 40.777344 -65.246094 L 171.265625 -65.246094 L 171.265625 -97.867188 L 40.777344 -97.867188 L 40.777344 -130.488281 L 171.265625 -130.488281 Z M 171.265625 -163.109375 "/></g></g></g><g fill="#ffffff" fill-opacity="1"><g transform="translate(420.907737, 399.944095)"><g><path d="M 40.777344 -163.109375 C 22.835938 -163.109375 8.15625 -148.429688 8.15625 -130.488281 L 8.15625 0 L 40.777344 0 L 40.777344 -65.246094 L 138.644531 -65.246094 L 138.644531 0 L 171.265625 0 L 171.265625 -130.488281 C 171.265625 -148.429688 156.585938 -163.109375 138.644531 -163.109375 Z M 40.777344 -130.488281 L 138.644531 -130.488281 L 138.644531 -97.867188 L 40.777344 -97.867188 Z M 40.777344 -130.488281 "/></g></g></g><g fill="#ffffff" fill-opacity="1"><g transform="translate(632.537635, 399.944095)"><g><path d="M 171.265625 -163.109375 L 132.121094 -163.109375 C 127.632812 -163.109375 123.558594 -161.480469 120.292969 -158.21875 L 59.941406 -97.867188 L 40.777344 -97.867188 L 40.777344 -163.109375 L 8.15625 -163.109375 L 8.15625 0 L 40.777344 0 L 40.777344 -65.246094 L 59.941406 -65.246094 L 120.292969 -4.894531 C 123.558594 -1.632812 127.632812 0 132.121094 0 L 171.265625 0 L 171.265625 -32.621094 L 138.644531 -32.621094 L 89.710938 -81.554688 L 138.644531 -130.488281 L 171.265625 -130.488281 Z M 171.265625 -163.109375 "/></g></g></g><g clip-path="url(#92259bef20)"><path fill="#000000" d="M 5.394531 -123.671875 L 271.894531 -123.671875 L 271.894531 408.828125 L 5.394531 408.828125 Z M 5.394531 -123.671875 " fill-opacity="1" fill-rule="nonzero"/></g><g clip-path="url(#22cdd878f8)"><path fill="#ffe936" d="M 271.894531 -123.671875 L 538.394531 -123.671875 L 538.394531 408.828125 L 271.894531 408.828125 Z M 271.894531 -123.671875 " fill-opacity="1" fill-rule="nonzero"/></g><g clip-path="url(#7558d16e00)"><path fill="#ff0f21" d="M 538.394531 -123.671875 L 804.894531 -123.671875 L 804.894531 408.828125 L 538.394531 408.828125 Z M 538.394531 -123.671875 " fill-opacity="1" fill-rule="nonzero"/></g></svg>